<svg xmlns="http://www.w3.org/2000/svg" xmlns:xlink="http://www.w3.org/1999/xlink" width="336" zoomAndPan="magnify" viewBox="0 0 252 143.999998" height="192" preserveAspectRatio="xMidYMid meet" version="1.0"><defs><g/></defs><g fill="#ffb905" fill-opacity="1"><g transform="translate(103.262384, 80.992036)"><g><path d="M 15.109375 -11.03125 C 14.148438 -11.03125 13.128906 -10.925781 12.046875 -10.71875 C 10.960938 -10.519531 9.90625 -10.195312 8.875 -9.75 C 7.8125 -10.226562 6.765625 -10.910156 5.734375 -11.796875 C 4.703125 -12.679688 3.863281 -13.691406 3.21875 -14.828125 C 2.582031 -15.960938 2.265625 -17.140625 2.265625 -18.359375 C 2.265625 -19.492188 2.457031 -20.457031 2.84375 -21.25 C 3.226562 -22.039062 3.734375 -22.691406 4.359375 -23.203125 C 5.234375 -23.898438 6.269531 -24.394531 7.46875 -24.6875 C 8.664062 -24.988281 10.421875 -25.140625 12.734375 -25.140625 L 16.265625 -25.140625 L 16.265625 -28.21875 L 0 -28.21875 L 0 -34.28125 L 45.375 -34.28125 L 45.375 -28.21875 L 40.1875 -28.21875 L 40.1875 0 L 32.796875 0 L 32.796875 -10.359375 C 31.253906 -9.847656 29.269531 -9.59375 26.84375 -9.59375 C 26.695312 -9.59375 26.566406 -9.59375 26.453125 -9.59375 C 26.492188 -9.226562 26.515625 -8.820312 26.515625 -8.375 C 26.515625 -6.175781 25.785156 -4.421875 24.328125 -3.109375 C 22.878906 -1.804688 20.796875 -0.972656 18.078125 -0.609375 C 19.109375 -0.203125 20.203125 0.203125 21.359375 0.609375 C 22.515625 1.015625 23.664062 1.398438 24.8125 1.765625 L 22.328125 7 C 19.898438 5.894531 17.566406 4.734375 15.328125 3.515625 C 13.085938 2.304688 11.101562 1.113281 9.375 -0.0625 C 7.207031 -0.164062 5.488281 -0.53125 4.21875 -1.15625 C 2.945312 -1.78125 2.3125 -2.9375 2.3125 -4.625 C 2.3125 -5.84375 2.675781 -6.742188 3.40625 -7.328125 C 4.144531 -7.921875 4.921875 -8.21875 5.734375 -8.21875 C 7.535156 -8.21875 9.335938 -7.40625 11.140625 -5.78125 C 11.648438 -5.707031 12.160156 -5.671875 12.671875 -5.671875 C 16.941406 -5.671875 19.078125 -6.664062 19.078125 -8.65625 C 19.078125 -9.382812 18.78125 -9.960938 18.1875 -10.390625 C 17.601562 -10.816406 16.578125 -11.03125 15.109375 -11.03125 Z M 26.125 -15.546875 C 27.664062 -15.546875 28.960938 -15.644531 30.015625 -15.84375 C 31.066406 -16.050781 31.992188 -16.300781 32.796875 -16.59375 L 32.796875 -28.21875 L 23.65625 -28.21875 L 23.65625 -19.671875 L 12.1875 -19.671875 C 11.5625 -19.671875 11.109375 -19.644531 10.828125 -19.59375 C 10.554688 -19.539062 10.328125 -19.457031 10.140625 -19.34375 C 9.703125 -19.09375 9.484375 -18.691406 9.484375 -18.140625 C 9.484375 -17.734375 9.582031 -17.363281 9.78125 -17.03125 C 9.988281 -16.695312 10.238281 -16.382812 10.53125 -16.09375 C 12.03125 -16.539062 13.921875 -16.765625 16.203125 -16.765625 C 18.265625 -16.765625 20.066406 -16.453125 21.609375 -15.828125 C 22.347656 -15.742188 23.140625 -15.675781 23.984375 -15.625 C 24.828125 -15.570312 25.539062 -15.546875 26.125 -15.546875 Z M 26.125 -15.546875 "/></g></g></g><g fill="#ffb905" fill-opacity="1"><g transform="translate(116.521644, 105.007957)"><g><path d="M 13.78125 0.5625 C 10.445312 0.5625 7.675781 -0.0664062 5.46875 -1.328125 C 3.257812 -2.597656 1.648438 -4.300781 0.640625 -6.4375 L 5.03125 -11.765625 L 5.703125 -11.765625 C 6.421875 -10.035156 7.4375 -8.671875 8.75 -7.671875 C 10.070312 -6.679688 11.601562 -6.1875 13.34375 -6.1875 C 15.300781 -6.1875 16.753906 -6.753906 17.703125 -7.890625 C 18.660156 -9.035156 19.140625 -10.890625 19.140625 -13.453125 L 19.140625 -39.359375 L 26.890625 -39.359375 L 26.890625 -13.328125 C 26.890625 -8.566406 25.804688 -5.0625 23.640625 -2.8125 C 21.484375 -0.5625 18.195312 0.5625 13.78125 0.5625 Z M 13.78125 0.5625 "/></g></g></g></svg>